<svg width="24" height="24" viewBox="0 0 24 24" fill="none" xmlns="http://www.w3.org/2000/svg" data-reactroot="">
<path stroke-width="1" stroke="#161616" d="M8 7V5C8 3.34315 9.34315 2 11 2H13C14.6569 2 16 3.34315 16 5V7"></path>
<path stroke-width="1" stroke="#161616" fill="none" d="M2 10C2 8.34315 3.34315 7 5 7H19C20.6569 7 22 8.34315 22 10V20C22 20.5523 21.5523 21 21 21H3C2.44772 21 2 20.5523 2 20L2 10Z" clip-rule="evenodd" fill-rule="evenodd"></path>
<path stroke-width="1" stroke="#161616" d="M12 10V14M12 14V18M12 14H8M12 14H16"></path>
</svg>
